<?xml version="1.0" standalone="no"?>
<!DOCTYPE svg PUBLIC "-//W3C//DTD SVG 20010904//EN"
 "http://www.w3.org/TR/2001/REC-SVG-20010904/DTD/svg10.dtd">
<svg version="1.0" xmlns="http://www.w3.org/2000/svg"
 width="229.000000pt" height="220.000000pt" viewBox="0 0 229.000000 220.000000"
 preserveAspectRatio="xMidYMid meet">

<g transform="translate(0.000000,220.000000) scale(0.100000,-0.100000)"
fill="#000000" stroke="none">
<path d="M1121 2023 c-10 -21 -24 -63 -31 -95 -11 -50 -16 -57 -43 -62 -62
-13 -70 -8 -115 64 -30 48 -52 72 -69 76 -38 10 -45 -10 -40 -113 4 -88 3 -91
-20 -102 -33 -15 -48 -14 -64 6 -27 32 -111 93 -130 93 -37 0 -42 -34 -14
-112 14 -40 28 -80 30 -88 3 -8 -6 -23 -21 -34 -25 -18 -26 -18 -93 13 -140
64 -172 26 -80 -94 50 -65 50 -67 34 -92 -16 -23 -21 -25 -64 -19 -128 19
-137 19 -154 2 -15 -16 -15 -20 -2 -46 8 -16 44 -48 79 -71 58 -38 63 -44 57
-68 -7 -24 -13 -27 -84 -34 -100 -10 -127 -20 -127 -50 0 -27 45 -55 131 -82
53 -17 55 -19 56 -52 1 -31 -3 -36 -35 -49 -126 -50 -160 -74 -143 -102 11
-19 69 -32 139 -32 58 0 63 -2 72 -26 15 -39 12 -48 -18 -66 -59 -35 -123
-100 -120 -122 3 -18 11 -22 52 -24 44 -3 118 8 156 23 18 6 56 -50 41 -59
-24 -15 -91 -131 -91 -157 0 -26 3 -29 33 -29 18 0 62 17 104 39 l71 39 21
-22 20 -22 -23 -59 c-33 -84 -38 -121 -21 -139 22 -22 51 -9 118 56 55 52 65
58 87 51 24 -9 25 -11 22 -89 -4 -98 8 -134 43 -134 20 0 34 13 65 61 22 34
42 70 45 81 5 14 14 18 38 16 30 -3 31 -6 47 -78 19 -90 34 -120 60 -120 28 0
48 35 67 122 18 77 18 78 50 80 18 1 40 2 48 2 8 1 32 -28 52 -63 21 -35 51
-74 66 -85 29 -21 29 -21 44 -1 12 16 14 39 10 113 l-5 92 28 15 c27 14 29 13
80 -33 60 -55 106 -83 126 -75 23 9 16 72 -16 147 l-29 68 22 19 c12 10 25 18
29 19 3 0 39 -16 79 -35 91 -43 129 -46 129 -9 0 33 -14 58 -66 121 -44 51
-44 51 -27 80 l16 30 60 -14 c33 -8 80 -13 106 -11 39 3 46 6 49 26 4 26 -38
70 -107 112 -39 24 -47 42 -35 74 5 12 21 16 68 17 84 1 140 19 144 46 4 27
-30 50 -117 80 -63 21 -66 23 -69 56 -3 33 0 36 35 47 99 33 162 79 145 107
-10 16 -86 32 -154 33 -56 0 -58 1 -66 32 -8 31 -5 34 52 77 78 60 104 95 86
116 -16 19 -66 19 -149 0 -35 -9 -64 -14 -65 -13 -1 2 -9 12 -19 24 -17 20
-16 22 16 65 61 79 82 138 56 154 -19 12 -75 -5 -134 -40 -56 -34 -59 -35 -79
-18 -12 10 -22 18 -24 19 -1 0 5 18 14 40 46 108 48 174 5 174 -10 0 -50 -27
-89 -60 -66 -55 -74 -59 -97 -48 -25 11 -25 14 -20 82 8 92 -3 131 -36 131
-22 0 -60 -46 -114 -140 -8 -13 -18 -16 -42 -11 -28 7 -31 12 -43 69 -26 132
-61 164 -99 90z m63 -1 c8 -16 20 -59 27 -95 10 -52 16 -67 33 -71 49 -13 61
-7 96 54 76 134 106 129 103 -14 l-1 -93 33 -16 32 -15 48 48 c60 61 112 91
124 71 10 -16 -3 -78 -31 -143 l-21 -49 26 -27 27 -26 78 42 c135 72 158 48
72 -77 -52 -75 -54 -89 -16 -120 12 -10 29 -10 85 3 168 38 181 4 38 -103 -37
-29 -56 -49 -52 -58 3 -8 8 -26 11 -39 6 -22 11 -24 68 -24 67 0 133 -13 148
-28 16 -16 -31 -50 -109 -80 l-73 -27 0 -41 0 -42 80 -28 c84 -29 122 -56 103
-75 -15 -15 -80 -28 -139 -29 -54 0 -67 -9 -77 -50 -5 -22 0 -29 41 -55 69
-44 112 -85 112 -106 0 -16 -7 -19 -42 -19 -24 0 -72 7 -107 15 -35 9 -65 14
-66 13 -1 -2 -10 -18 -19 -36 -19 -38 -23 -30 54 -127 22 -27 40 -61 40 -74 0
-21 -3 -23 -32 -17 -18 4 -64 22 -102 42 l-70 35 -29 -30 -30 -30 27 -62 c16
-34 31 -79 33 -100 5 -34 3 -39 -14 -39 -23 0 -59 25 -120 83 l-42 40 -35 -17
-35 -17 6 -97 c5 -80 3 -100 -9 -110 -13 -10 -21 -7 -46 22 -16 19 -43 57 -58
86 -28 49 -30 51 -64 46 -19 -3 -45 -6 -56 -6 -18 0 -23 -8 -29 -47 -10 -65
-44 -153 -59 -153 -27 0 -39 30 -70 171 -5 22 -13 28 -42 31 -34 4 -37 2 -61
-46 -78 -157 -132 -151 -117 14 l6 75 -33 16 -34 16 -68 -63 c-107 -101 -132
-86 -86 50 25 71 28 90 18 102 -29 35 -46 35 -107 -1 -33 -20 -76 -38 -96 -42
-32 -5 -36 -3 -36 17 0 20 25 63 81 139 l22 29 -22 31 c-26 36 -22 35 -85 16
-27 -8 -71 -15 -97 -15 -80 0 -77 28 13 94 34 25 65 47 71 49 7 2 8 18 1 48
l-9 44 -94 7 c-145 10 -150 41 -15 95 l79 32 0 43 0 42 -60 21 c-90 31 -127
54 -123 73 4 21 72 40 145 41 50 1 52 2 64 38 9 28 9 38 0 41 -24 8 -130 92
-141 112 -9 17 -7 22 14 31 19 9 44 8 106 -3 l81 -15 19 28 c25 34 25 51 0 74
-31 28 -80 106 -80 127 0 28 45 22 125 -17 l70 -34 29 29 29 28 -27 66 c-28
71 -35 136 -13 136 18 0 55 -26 108 -77 l46 -45 40 21 40 20 -5 95 c-4 83 -2
96 12 102 23 9 46 -14 90 -89 l37 -63 57 9 58 9 17 70 c16 71 39 118 57 118 5
0 16 -13 24 -28z"/>
<path d="M794 1589 c69 -60 200 -151 253 -176 129 -60 247 -18 443 157 l35 32
-45 -27 c-25 -15 -88 -48 -140 -73 -92 -45 -98 -47 -185 -47 -84 0 -96 3 -170
38 -44 21 -102 52 -130 69 -27 17 -61 38 -75 46 -14 8 -7 0 14 -19z"/>
<path d="M697 1413 c-4 -3 -7 -12 -7 -20 0 -10 20 -13 83 -13 124 0 226 -32
302 -93 28 -24 29 -25 12 -48 -123 -169 -180 -303 -201 -471 l-6 -48 69 0 68
0 7 73 c18 183 91 397 136 397 4 0 22 -27 39 -60 35 -65 75 -209 86 -305 12
-111 7 -105 80 -105 74 0 72 -3 54 96 -24 136 -83 274 -165 383 l-47 63 24 20
c79 62 194 98 317 98 74 0 83 2 80 18 -3 15 -17 17 -123 17 -140 -1 -226 -24
-301 -81 l-45 -34 -32 24 c-52 39 -115 67 -186 82 -68 14 -232 19 -244 7z
m424 -212 c-64 -89 -114 -241 -127 -379 l-7 -72 -34 0 c-34 0 -34 0 -28 38 26
149 80 284 155 385 44 57 80 82 41 28z m185 -146 c44 -89 84 -221 84 -277 0
-24 -4 -28 -29 -28 -28 0 -30 2 -36 58 -18 151 -61 289 -115 368 -41 62 -37
68 11 14 22 -25 60 -85 85 -135z"/>
<path d="M773 625 c0 -44 2 -61 4 -37 2 23 2 59 0 80 -2 20 -4 1 -4 -43z"/>
<path d="M827 693 c-11 -10 -8 -143 3 -143 6 0 10 32 10 75 0 75 -1 81 -13 68z"/>
<path d="M880 625 c0 -43 4 -75 10 -75 6 0 10 32 10 75 0 43 -4 75 -10 75 -6
0 -10 -32 -10 -75z"/>
<path d="M925 690 c-4 -6 6 -10 24 -10 l30 0 4 -67 3 -68 2 68 c2 64 3 67 27
67 14 0 25 5 25 10 0 6 -24 10 -54 10 -30 0 -58 -4 -61 -10z"/>
<path d="M1070 626 l0 -76 40 0 c51 0 80 27 80 73 0 43 -26 67 -79 74 l-41 6
0 -77z m85 40 c24 -17 23 -75 -1 -93 -10 -7 -28 -13 -41 -13 -21 0 -23 4 -23
60 0 56 2 60 23 60 13 0 31 -6 42 -14z"/>
<path d="M1242 688 c-15 -15 -16 -40 -2 -54 8 -8 6 -15 -5 -24 -38 -31 1 -79
53 -64 15 4 33 6 41 5 7 -1 10 2 7 7 -3 6 -2 22 4 36 5 14 6 26 1 26 -5 0 -11
-10 -15 -22 l-5 -23 -23 22 c-21 22 -21 23 -3 43 15 16 17 25 9 38 -14 21 -45
27 -62 10z m44 -13 c4 -8 0 -22 -7 -31 -12 -14 -14 -14 -26 2 -9 13 -10 21 -2
31 15 17 28 17 35 -2z m0 -86 c16 -17 16 -22 4 -29 -21 -13 -26 -12 -45 6 -12
12 -13 19 -4 30 15 19 23 18 45 -7z"/>
<path d="M1387 693 c-11 -10 -8 -143 3 -143 6 0 10 28 11 63 l0 62 26 -62 c15
-35 29 -63 33 -63 4 0 18 28 33 63 l26 62 0 -62 c1 -37 5 -63 11 -63 15 0 8
142 -6 147 -7 2 -22 -23 -35 -57 -13 -33 -26 -60 -29 -60 -3 0 -16 27 -28 60
-23 58 -31 68 -45 53z"/>
<path d="M1023 500 c0 -25 2 -35 4 -22 6 31 31 28 36 -5 l4 -28 2 28 c1 21 -4
30 -18 34 -11 3 -22 12 -24 22 -3 9 -5 -4 -4 -29z"/>
<path d="M772 495 c0 -22 2 -32 5 -22 5 18 5 18 26 0 22 -18 22 -18 5 3 -17
19 -17 21 0 39 17 19 17 19 -5 1 -20 -17 -21 -17 -26 1 -3 10 -5 0 -5 -22z"/>
<path d="M853 503 c18 -5 18 -5 0 -18 -14 -10 -15 -16 -6 -25 16 -17 33 -4 33
26 0 19 -5 24 -22 23 -19 -1 -19 -2 -5 -6z m17 -33 c0 -5 -4 -10 -10 -10 -5 0
-10 5 -10 10 0 6 5 10 10 10 6 0 10 -4 10 -10z"/>
<path d="M901 478 c2 -30 2 -31 6 -5 5 31 29 36 36 7 4 -17 4 -16 3 2 -1 16
-8 24 -23 26 -20 3 -23 -1 -22 -30z"/>
<path d="M966 494 c-7 -18 10 -44 27 -44 6 0 2 7 -9 15 -19 15 -19 15 0 30 16
12 17 15 4 15 -9 0 -19 -7 -22 -16z"/>
<path d="M1105 501 l20 -8 -20 -5 c-18 -5 -17 -6 3 -7 29 -1 25 23 -4 26 -18
3 -18 2 1 -6z"/>
<path d="M1157 503 c-13 -12 -7 -23 13 -23 11 0 20 7 20 15 0 15 -21 21 -33 8z"/>
<path d="M1212 468 l1 -43 4 38 c3 24 9 37 19 37 16 0 19 -36 4 -43 -6 -3 -5
-4 2 -3 7 2 13 14 13 27 0 17 -6 25 -22 27 -21 3 -23 0 -21 -40z"/>
<path d="M1342 485 c0 -16 2 -22 5 -12 2 9 2 23 0 30 -3 6 -5 -1 -5 -18z"/>
<path d="M1398 503 c7 -3 16 -2 19 1 4 3 -2 6 -13 5 -11 0 -14 -3 -6 -6z"/>
<path d="M1441 482 c2 -23 2 -24 6 -4 6 31 31 28 36 -5 l4 -28 2 28 c1 33 28
37 34 5 5 -20 5 -20 4 2 -2 22 -7 25 -44 27 -41 3 -43 1 -42 -25z"/>
<path d="M1384 479 c-11 -18 14 -35 29 -20 10 10 9 11 -5 6 -10 -4 -18 -3 -18
3 0 6 8 13 18 15 15 4 15 5 0 6 -9 0 -20 -4 -24 -10z"/>
<path d="M1098 458 c5 -5 16 -8 23 -6 8 3 3 7 -10 11 -17 4 -21 3 -13 -5z"/>
<path d="M1158 458 c5 -5 16 -8 23 -6 8 3 3 7 -10 11 -17 4 -21 3 -13 -5z"/>
<path d="M1290 456 c7 -7 13 -7 20 0 6 6 3 10 -10 10 -13 0 -16 -4 -10 -10z"/>
</g>
</svg>
