<svg id="svg" version="1.1" xmlns="http://www.w3.org/2000/svg" xmlns:xlink="http://www.w3.org/1999/xlink" width="400" height="383.97596394591886" viewBox="0, 0, 400,383.97596394591886"><g id="svgg"><path id="path0" d="M259.289 135.522 C 235.398 136.986,216.076 144.044,203.606 155.861 L 202.203 157.191 200.401 155.584 C 188.954 145.376,174.018 139.042,155.701 136.625 C 149.667 135.829,147.323 135.703,138.708 135.715 C 130.333 135.727,128.219 135.846,122.133 136.647 L 120.381 136.877 120.381 140.547 L 120.381 144.216 120.931 144.215 C 121.234 144.214,122.519 144.085,123.786 143.929 C 150.492 140.634,175.832 147.570,190.135 162.089 C 192.731 164.723,192.718 164.242,190.273 167.154 C 168.815 192.711,155.451 225.295,154.106 255.333 L 153.969 258.388 166.118 258.388 C 175.704 258.388,178.267 258.335,178.268 258.137 C 178.271 254.646,179.993 238.505,181.190 230.746 C 184.974 206.208,192.943 184.710,201.259 176.597 L 202.253 175.628 203.730 177.646 C 214.020 191.698,221.510 216.109,225.121 247.371 C 225.474 250.424,226.135 257.420,226.138 258.137 C 226.139 258.335,228.699 258.388,238.266 258.388 L 250.392 258.388 250.267 256.835 C 247.501 222.477,233.621 188.996,212.982 166.892 C 210.517 164.252,210.442 164.813,213.628 162.058 C 230.848 147.168,255.748 140.506,281.780 143.826 C 283.465 144.041,284.929 144.216,285.035 144.216 C 285.152 144.216,285.228 142.764,285.228 140.551 L 285.228 136.885 282.374 136.543 C 275.570 135.729,264.151 135.223,259.289 135.522 M198.180 170.037 L 198.739 170.620 197.444 172.191 C 183.823 188.704,174.149 218.699,172.340 250.025 L 172.204 252.379 166.716 252.379 L 161.228 252.379 161.339 251.427 C 165.116 219.014,176.375 192.259,194.716 172.108 C 197.362 169.202,197.373 169.195,198.180 170.037 M209.690 172.108 C 228.034 192.262,239.290 219.010,243.068 251.427 L 243.179 252.379 237.691 252.379 L 232.203 252.379 232.067 250.025 C 230.260 218.733,220.584 188.706,207.001 172.237 L 205.744 170.713 206.373 170.084 C 207.204 169.253,206.951 169.099,209.690 172.108 " stroke="none" fill="#140c84" fill-rule="evenodd"></path><path id="path1" d="M131.197 100.407 C 131.197 102.016,155.568 121.274,168.553 129.926 C 181.913 138.829,188.777 141.659,199.299 142.606 C 207.516 143.345,214.386 142.072,221.132 138.560 C 234.391 131.656,241.855 126.464,255.266 114.810 C 262.009 108.951,265.336 106.211,268.450 103.951 C 270.624 102.373,270.790 102.206,270.798 101.581 C 270.809 100.715,271.029 100.616,266.028 103.731 C 225.333 129.079,209.188 134.135,186.667 128.584 C 175.082 125.728,158.881 117.356,134.219 101.479 C 131.161 99.510,131.197 99.523,131.197 100.407 " stroke="none" fill="#eb078d" fill-rule="evenodd"></path><path id="path2" d="M218.591 262.155 C 213.680 263.899,212.781 269.262,216.697 273.448 C 218.179 275.033,218.174 274.803,216.745 275.685 C 212.779 278.133,211.437 282.896,213.705 286.473 C 216.206 290.416,223.656 290.806,228.994 287.274 L 229.766 286.763 231.013 287.998 L 232.259 289.234 234.307 289.234 C 236.803 289.234,236.809 289.396,234.212 286.791 L 232.070 284.642 232.684 283.783 C 234.169 281.706,235.086 279.253,235.330 276.705 L 235.472 275.213 233.710 275.213 L 231.948 275.213 231.945 276.164 C 231.940 277.610,231.419 279.525,230.610 281.064 L 229.881 282.450 226.532 278.982 C 224.690 277.074,223.219 275.451,223.263 275.375 C 223.307 275.299,223.843 274.952,224.453 274.603 C 230.127 271.356,230.795 264.812,225.691 262.478 C 224.032 261.719,220.295 261.549,218.591 262.155 M133.600 275.613 L 133.600 289.034 135.303 289.034 L 137.006 289.034 137.006 275.613 L 137.006 262.193 135.303 262.193 L 133.600 262.193 133.600 275.613 M143.615 275.613 L 143.615 289.034 145.318 289.034 L 147.021 289.034 147.021 275.613 L 147.021 262.193 145.318 262.193 L 143.615 262.193 143.615 275.613 M153.831 275.714 L 153.831 289.234 155.533 289.234 L 157.236 289.234 157.236 275.714 L 157.236 262.193 155.533 262.193 L 153.831 262.193 153.831 275.714 M161.242 263.796 L 161.242 265.398 165.648 265.398 L 170.055 265.398 170.055 277.316 L 170.055 289.234 171.858 289.234 L 173.660 289.234 173.660 277.316 L 173.660 265.398 178.067 265.398 L 182.474 265.398 182.474 263.796 L 182.474 262.193 171.858 262.193 L 161.242 262.193 161.242 263.796 M186.680 275.727 L 186.680 289.298 191.485 289.163 C 199.424 288.940,202.169 288.063,205.244 284.767 C 209.733 279.956,209.617 270.712,205.010 266.093 C 201.986 263.060,199.693 262.370,192.238 262.247 L 186.680 262.156 186.680 275.727 M241.562 275.707 L 241.562 289.234 243.294 289.234 L 245.025 289.234 244.924 277.912 L 244.824 266.589 246.369 270.450 C 247.675 273.711,253.307 287.175,254.027 288.754 C 254.223 289.184,254.367 289.245,255.065 289.194 L 255.876 289.134 259.139 281.422 C 261.823 275.076,263.288 271.505,265.158 266.745 C 265.235 266.549,265.269 271.529,265.233 277.812 L 265.169 289.234 266.886 289.234 L 268.603 289.234 268.603 275.714 L 268.603 262.193 266.123 262.193 L 263.643 262.193 260.124 270.656 C 258.189 275.310,256.266 280.041,255.852 281.169 C 255.437 282.297,255.042 283.153,254.974 283.072 C 254.907 282.991,254.425 281.798,253.905 280.421 C 253.384 279.044,251.497 274.402,249.711 270.105 L 246.465 262.293 244.013 262.237 L 241.562 262.181 241.562 275.707 M223.855 264.978 C 226.966 266.391,226.002 270.426,221.991 272.778 L 220.947 273.390 219.833 272.160 C 217.172 269.219,217.035 266.303,219.495 265.003 C 220.492 264.476,222.722 264.464,223.855 264.978 M197.178 265.698 C 202.196 266.761,204.774 270.050,204.794 275.413 C 204.821 282.487,201.381 285.535,192.939 285.917 L 190.085 286.047 190.085 275.722 L 190.085 265.398 192.939 265.402 C 194.668 265.404,196.340 265.521,197.178 265.698 M223.938 280.927 C 226.939 283.933,227.584 284.676,227.341 284.841 C 223.101 287.711,217.924 287.469,216.501 284.335 C 215.475 282.077,216.371 279.740,219.009 277.793 C 220.098 276.988,219.849 276.830,223.938 280.927 M178.468 297.346 L 178.468 305.058 179.369 305.058 L 180.270 305.058 180.270 301.432 L 180.270 297.807 180.916 297.204 C 181.686 296.485,182.258 296.244,183.201 296.244 C 184.875 296.244,185.078 296.810,185.078 301.482 L 185.078 305.058 185.979 305.058 L 186.880 305.058 186.880 301.002 C 186.880 296.450,186.760 295.939,185.499 295.097 C 184.430 294.382,182.458 294.448,181.211 295.238 L 180.270 295.835 180.270 292.735 L 180.270 289.634 179.369 289.634 L 178.468 289.634 178.468 297.346 M133.801 297.747 L 133.801 304.857 134.802 304.857 L 135.804 304.857 135.804 301.504 L 135.804 298.152 139.161 301.504 L 142.518 304.857 143.816 304.857 L 145.114 304.857 141.539 301.278 L 137.964 297.699 141.212 294.218 L 144.461 290.736 143.289 290.675 L 142.116 290.613 141.010 291.776 C 140.401 292.416,138.983 293.931,137.857 295.143 L 135.810 297.346 135.807 293.991 L 135.804 290.636 134.802 290.636 L 133.801 290.636 133.801 297.747 M147.672 294.866 C 147.066 295.041,147.021 295.114,147.021 295.926 L 147.021 296.798 147.772 296.530 C 150.130 295.689,152.429 296.511,152.429 298.196 L 152.429 298.771 150.650 298.686 C 147.513 298.536,146.387 299.296,146.253 301.650 C 146.160 303.303,146.594 304.209,147.739 304.752 C 149.040 305.369,151.837 305.052,152.346 304.229 C 152.467 304.032,152.543 304.093,152.628 304.459 C 152.723 304.865,152.885 304.969,153.499 305.020 L 154.254 305.083 154.192 300.777 L 154.131 296.470 153.530 295.832 C 152.463 294.698,149.784 294.256,147.672 294.866 M159.981 295.237 L 159.043 295.832 158.919 295.337 C 158.814 294.917,158.677 294.842,158.015 294.842 L 157.236 294.842 157.236 299.950 L 157.236 305.058 158.237 305.058 L 159.239 305.058 159.239 301.390 L 159.239 297.721 159.790 297.208 C 160.997 296.081,162.500 295.882,163.354 296.736 C 163.843 297.224,163.846 297.253,163.846 301.143 L 163.846 305.058 164.868 305.058 L 165.890 305.058 165.814 301.002 C 165.729 296.480,165.550 295.744,164.363 295.020 C 163.320 294.384,161.158 294.491,159.981 295.237 M170.718 295.149 C 168.090 296.459,167.274 301.092,169.250 303.487 C 170.951 305.550,175.864 305.796,175.864 303.819 C 175.864 303.030,175.851 303.015,175.313 303.183 C 173.006 303.903,170.824 303.072,170.283 301.267 C 169.277 297.909,171.726 295.411,174.948 296.509 L 175.864 296.821 175.864 295.951 C 175.864 294.523,172.901 294.061,170.718 295.149 M191.728 295.058 C 188.064 296.916,188.476 303.831,192.312 304.864 C 193.391 305.154,195.882 305.137,196.898 304.833 C 197.952 304.517,198.193 302.881,197.146 303.148 C 193.951 303.963,191.574 303.137,191.160 301.068 L 191.037 300.451 194.467 300.451 L 197.897 300.451 197.895 299.099 C 197.890 295.504,194.817 293.491,191.728 295.058 M202.545 295.058 C 198.880 296.916,199.292 303.831,203.129 304.864 C 204.207 305.154,206.698 305.137,207.715 304.833 C 208.769 304.517,209.009 302.881,207.962 303.148 C 204.767 303.963,202.390 303.137,201.976 301.068 L 201.853 300.451 205.283 300.451 L 208.713 300.451 208.711 299.099 C 208.706 295.504,205.634 293.491,202.545 295.058 M214.522 294.786 C 214.357 294.849,213.968 295.077,213.658 295.294 L 213.094 295.689 212.983 295.266 C 212.895 294.926,212.718 294.842,212.095 294.842 L 211.317 294.842 211.317 302.354 L 211.317 309.865 212.318 309.865 L 213.320 309.865 213.320 307.067 L 213.320 304.270 214.005 304.674 C 217.018 306.452,220.403 303.907,220.421 299.850 C 220.439 295.944,217.699 293.593,214.522 294.786 M237.456 294.975 C 237.126 295.149,236.661 295.468,236.424 295.684 L 235.993 296.077 235.857 295.460 C 235.734 294.898,235.651 294.842,234.937 294.842 L 234.151 294.842 234.151 299.950 L 234.151 305.058 235.153 305.058 L 236.154 305.058 236.154 301.387 C 236.154 297.833,236.169 297.703,236.608 297.290 C 237.227 296.708,238.400 296.244,239.252 296.244 C 239.944 296.244,239.960 296.227,239.960 295.443 L 239.960 294.642 239.009 294.650 C 238.485 294.654,237.787 294.801,237.456 294.975 M242.414 294.866 C 241.808 295.041,241.763 295.114,241.763 295.926 L 241.763 296.798 242.514 296.530 C 244.872 295.689,247.171 296.511,247.171 298.196 L 247.171 298.771 245.392 298.686 C 242.255 298.536,241.129 299.296,240.996 301.650 C 240.902 303.307,241.336 304.209,242.491 304.757 C 243.539 305.254,245.923 305.114,246.744 304.507 L 247.344 304.064 247.408 304.511 C 247.459 304.870,247.621 304.970,248.233 305.020 L 248.996 305.083 248.935 300.777 L 248.873 296.470 248.272 295.832 C 247.205 294.698,244.526 294.256,242.414 294.866 M255.083 294.976 C 254.752 295.150,254.328 295.427,254.141 295.591 C 253.832 295.860,253.787 295.839,253.668 295.365 C 253.555 294.914,253.431 294.842,252.757 294.842 L 251.978 294.842 251.978 299.950 L 251.978 305.058 252.979 305.058 L 253.981 305.058 253.981 301.391 L 253.981 297.725 254.665 297.062 C 255.844 295.920,257.820 295.981,258.365 297.177 C 258.503 297.479,258.588 299.079,258.588 301.361 L 258.588 305.058 259.489 305.058 L 260.391 305.058 260.391 301.497 C 260.391 298.657,260.451 297.849,260.691 297.507 C 261.593 296.220,263.722 295.815,264.612 296.761 C 265.087 297.265,265.099 297.366,265.160 301.167 L 265.222 305.058 266.111 305.058 L 267.001 305.058 266.996 301.102 C 266.990 295.596,266.498 294.644,263.659 294.643 C 262.177 294.642,261.664 294.816,260.729 295.637 L 260.022 296.258 259.717 295.822 C 258.899 294.655,256.514 294.219,255.083 294.976 M222.969 298.814 C 223.057 304.151,223.655 305.058,227.091 305.058 C 230.631 305.058,231.336 303.970,231.343 298.498 L 231.347 294.842 230.446 294.842 L 229.544 294.842 229.544 298.154 C 229.544 302.619,229.165 303.455,227.141 303.455 C 225.116 303.455,224.737 302.619,224.737 298.154 L 224.737 294.842 223.821 294.842 L 222.904 294.842 222.969 298.814 M194.903 296.451 C 195.325 296.676,195.763 297.435,195.970 298.297 L 196.102 298.848 193.592 298.848 L 191.081 298.848 191.387 298.097 C 192.024 296.534,193.643 295.776,194.903 296.451 M205.720 296.451 C 206.141 296.676,206.579 297.435,206.786 298.297 L 206.918 298.848 204.408 298.848 L 201.897 298.848 202.203 298.097 C 202.840 296.534,204.459 295.776,205.720 296.451 M217.151 296.558 C 218.953 297.490,218.985 301.632,217.201 303.040 C 216.498 303.594,214.759 303.556,213.865 302.967 L 213.309 302.601 213.365 299.881 L 213.420 297.161 214.101 296.703 C 214.912 296.156,216.252 296.093,217.151 296.558 M151.988 300.379 C 152.402 300.490,152.442 300.603,152.388 301.523 C 152.249 303.906,148.022 304.225,148.022 301.853 C 148.022 300.516,149.897 299.819,151.988 300.379 M246.730 300.379 C 247.144 300.490,247.184 300.603,247.130 301.523 C 246.991 303.906,242.764 304.225,242.764 301.853 C 242.764 300.516,244.639 299.819,246.730 300.379 " stroke="none" fill="#042c2c" fill-rule="evenodd"></path><path id="path3" d="M201.101 23.921 C 196.197 25.275,191.981 34.959,188.579 52.679 C 187.699 57.265,187.735 57.170,186.860 57.240 C 184.051 57.463,178.177 58.215,175.263 58.724 C 173.335 59.061,171.594 59.348,171.393 59.363 C 171.120 59.382,170.467 58.410,168.789 55.482 C 157.898 36.482,152.222 30.460,146.970 32.334 C 142.091 34.075,141.117 43.631,143.631 65.070 C 143.855 66.982,144.011 68.564,143.977 68.586 C 143.944 68.608,143.105 68.998,142.113 69.452 C 141.122 69.907,138.778 71.029,136.905 71.945 C 135.033 72.861,133.433 73.640,133.352 73.677 C 133.270 73.713,131.332 71.909,129.045 69.668 C 114.902 55.809,107.146 51.434,102.348 54.609 C 100.148 56.065,99.281 59.698,100.054 64.220 C 101.161 70.699,105.695 82.781,109.196 88.584 C 110.179 90.213,110.619 89.551,105.405 94.291 L 101.346 97.981 95.991 95.185 C 75.479 84.473,66.664 83.154,65.092 90.561 C 64.128 95.106,70.814 106.238,80.835 116.769 C 84.002 120.097,84.026 119.512,80.486 125.020 L 77.648 129.437 76.687 129.309 C 76.159 129.239,74.329 128.869,72.621 128.486 C 55.013 124.541,44.931 124.426,41.669 128.133 C 37.362 133.025,42.749 140.273,58.506 150.789 C 61.975 153.104,66.591 155.834,67.036 155.834 C 67.330 155.834,67.395 156.153,67.134 156.314 C 67.042 156.371,66.436 158.222,65.788 160.427 C 65.031 163.000,64.498 164.481,64.302 164.559 C 64.134 164.626,62.374 164.764,60.391 164.866 C 36.029 166.115,26.717 169.471,28.515 176.353 C 29.851 181.473,42.097 187.821,58.675 191.989 C 61.723 192.755,61.525 192.539,61.383 194.952 C 61.317 196.076,61.349 198.663,61.455 200.701 C 61.591 203.338,61.583 204.446,61.429 204.543 C 61.309 204.619,59.720 205.194,57.897 205.821 C 39.509 212.148,31.482 216.610,30.129 221.255 C 28.155 228.036,37.788 231.244,60.531 231.378 C 66.775 231.415,66.377 231.339,66.696 232.549 C 66.883 233.256,69.126 240.820,69.617 242.395 C 69.695 242.649,68.589 243.483,64.955 245.908 C 47.783 257.371,41.890 263.540,43.186 268.698 C 44.578 274.241,53.373 275.045,70.641 271.210 C 74.926 270.259,78.437 269.280,80.506 268.459 C 81.727 267.975,82.420 267.791,82.469 267.937 C 82.510 268.062,83.723 269.952,85.163 272.139 C 86.604 274.325,87.821 276.214,87.868 276.336 C 87.914 276.458,86.927 277.855,85.674 279.441 C 74.098 294.085,69.339 302.695,70.278 307.299 C 71.903 315.276,82.815 312.880,103.786 299.942 C 107.799 297.467,107.109 297.596,108.730 299.016 C 109.464 299.659,111.057 300.980,112.268 301.952 C 114.965 304.113,114.909 303.702,113.094 308.004 C 103.053 331.813,102.342 341.903,110.706 341.912 C 115.757 341.917,127.627 332.390,138.235 319.816 L 138.712 319.251 143.291 321.318 L 147.870 323.385 147.751 325.188 C 147.686 326.179,147.453 328.838,147.235 331.097 C 145.588 348.116,146.675 357.449,150.607 360.051 C 153.928 362.249,157.987 360.637,162.163 355.462 C 166.167 350.501,173.987 337.076,175.578 332.433 C 175.885 331.535,175.947 331.475,176.437 331.602 C 177.720 331.935,180.170 332.304,182.618 332.532 L 185.266 332.778 185.465 333.790 C 185.575 334.347,185.943 336.421,186.283 338.399 C 189.126 354.939,192.410 364.404,196.146 366.829 C 200.084 369.385,203.853 367.337,206.848 361.016 C 209.066 356.332,212.621 342.874,213.793 334.721 L 214.041 332.999 214.832 332.950 C 217.131 332.804,226.718 331.142,228.897 330.511 C 229.686 330.282,229.365 329.836,232.402 335.403 C 243.449 355.658,250.171 362.329,255.788 358.611 C 259.942 355.862,260.635 343.597,257.666 325.388 C 257.379 323.625,257.131 322.019,257.115 321.817 C 257.093 321.539,257.468 321.296,258.688 320.798 C 261.048 319.835,263.596 318.519,266.309 316.864 L 266.920 316.492 271.293 320.797 C 286.403 335.675,293.666 340.198,298.589 337.794 C 303.041 335.621,302.712 328.543,297.547 315.373 C 295.520 310.204,292.173 302.894,290.822 300.683 C 290.498 300.153,289.990 300.694,295.718 295.471 L 298.653 292.796 303.307 295.301 C 322.106 305.418,330.695 308.043,334.926 304.964 C 340.040 301.242,335.312 291.415,320.499 274.981 C 319.112 273.442,317.677 271.834,317.310 271.407 L 316.643 270.630 317.428 269.466 C 318.355 268.092,320.536 264.416,321.475 262.644 C 322.280 261.127,321.870 261.145,326.931 262.400 C 346.636 267.288,357.172 267.660,360.133 263.574 C 363.992 258.247,356.660 250.013,336.605 237.155 C 334.842 236.025,333.375 235.079,333.344 235.054 C 333.313 235.028,333.638 233.800,334.066 232.326 C 334.494 230.851,335.002 228.993,335.194 228.198 C 335.609 226.481,335.230 226.616,340.110 226.440 C 358.507 225.776,369.850 223.176,372.333 219.054 C 376.033 212.911,366.605 206.468,344.617 200.113 C 342.634 199.540,340.628 198.934,340.160 198.768 L 339.309 198.465 339.306 193.524 C 339.305 190.806,339.257 188.403,339.200 188.182 C 339.106 187.822,339.496 187.643,343.058 186.414 C 366.828 178.207,375.191 172.060,371.065 165.826 C 368.471 161.905,354.546 159.449,337.302 159.869 L 334.338 159.942 333.722 157.637 C 333.384 156.370,332.711 154.045,332.228 152.470 L 331.349 149.608 332.675 148.678 C 353.024 134.409,359.194 128.075,357.931 122.748 C 356.479 116.623,347.197 116.350,326.089 121.815 C 319.690 123.471,319.511 123.506,319.187 123.164 C 318.689 122.638,314.016 115.874,313.943 115.573 C 313.902 115.408,314.742 114.146,315.809 112.769 C 331.906 91.986,335.383 81.364,326.691 79.520 C 321.843 78.491,306.788 85.064,295.590 93.098 L 294.635 93.783 293.265 92.490 C 292.512 91.780,290.868 90.359,289.613 89.333 C 288.144 88.133,287.355 87.355,287.397 87.149 C 287.434 86.974,288.146 85.208,288.981 83.225 C 297.975 61.849,299.086 52.062,292.721 50.295 C 287.506 48.847,278.353 55.160,264.905 69.481 L 262.952 71.562 261.397 70.733 C 260.542 70.277,258.591 69.365,257.062 68.705 L 254.281 67.505 254.301 65.951 C 254.312 65.096,254.470 62.698,254.652 60.622 C 256.354 41.195,254.742 32.179,249.360 31.025 C 243.974 29.870,239.341 35.213,227.745 55.950 C 226.287 58.558,226.032 58.907,225.661 58.805 C 224.990 58.622,220.844 57.935,218.340 57.591 C 217.080 57.419,216.005 57.234,215.952 57.180 C 215.898 57.127,215.465 54.772,214.989 51.948 C 211.365 30.453,207.282 22.213,201.101 23.921 M203.214 27.132 C 206.398 28.462,209.228 36.887,211.992 53.257 C 213.093 59.784,213.427 60.491,215.410 60.491 C 216.354 60.491,222.873 61.440,224.637 61.834 C 227.170 62.400,227.167 62.400,227.949 61.619 C 228.338 61.230,229.281 59.803,230.044 58.448 C 240.598 39.717,244.793 34.062,248.141 34.053 C 251.776 34.043,252.985 43.769,251.439 60.591 C 250.903 66.428,250.949 69.519,251.577 69.846 C 251.853 69.989,253.692 70.799,255.665 71.645 C 257.638 72.492,260.047 73.663,261.018 74.249 C 263.509 75.750,263.430 75.771,266.167 72.859 C 293.310 43.968,300.561 47.018,286.285 81.322 C 284.365 85.936,284.158 86.554,284.143 87.717 L 284.126 89.004 286.430 90.889 C 287.697 91.926,289.842 93.758,291.198 94.960 C 294.220 97.641,294.586 97.728,296.682 96.261 C 302.494 92.194,313.279 86.223,318.478 84.194 C 332.752 78.622,331.200 87.158,313.756 110.165 C 310.481 114.485,309.788 115.868,310.530 116.611 C 310.675 116.756,312.216 118.903,313.955 121.382 C 317.966 127.102,318.105 127.177,322.484 126.004 C 357.676 116.580,364.361 120.766,341.813 138.108 C 339.357 139.997,337.043 141.670,330.617 146.205 C 328.329 147.820,327.561 149.153,328.166 150.459 C 328.830 151.892,331.137 159.805,331.383 161.494 C 331.612 163.060,331.486 163.037,340.355 163.130 C 363.407 163.373,372.670 166.238,367.321 171.470 C 363.922 174.794,355.430 178.697,339.255 184.368 C 336.397 185.370,335.629 186.398,336.055 188.651 C 336.152 189.164,336.180 191.838,336.116 194.592 C 335.962 201.287,335.584 200.757,341.813 202.573 C 357.974 207.284,368.184 212.058,369.654 215.588 C 371.252 219.427,361.501 222.115,342.313 223.125 C 335.011 223.510,334.891 223.522,333.999 223.916 C 332.978 224.368,332.587 224.911,332.400 226.139 C 332.221 227.320,330.630 232.995,330.105 234.327 C 329.390 236.140,329.712 236.569,333.663 239.079 C 348.816 248.704,357.911 256.717,357.933 260.461 C 357.955 264.465,347.546 264.091,327.808 259.379 C 321.449 257.861,320.194 257.852,319.496 259.322 C 318.310 261.820,316.062 265.735,314.541 267.952 C 312.694 270.644,312.859 271.421,315.999 274.813 C 327.586 287.329,334.441 297.581,333.677 301.249 C 332.829 305.317,322.582 302.171,304.557 292.307 C 298.268 288.866,298.033 288.815,296.267 290.520 C 295.649 291.118,293.385 293.216,291.237 295.184 L 287.331 298.760 287.272 299.767 C 287.217 300.692,287.353 301.046,288.936 304.109 C 295.697 317.193,299.749 330.164,298.195 333.746 C 296.309 338.093,288.744 333.374,273.229 318.171 C 267.232 312.295,267.478 312.395,264.051 314.442 C 261.472 315.982,258.527 317.453,256.585 318.172 C 253.695 319.241,253.487 319.840,254.329 324.687 C 257.096 340.633,256.862 354.485,253.797 356.126 C 250.537 357.870,244.058 350.111,235.351 334.036 C 232.076 327.989,231.139 326.879,229.544 327.158 C 229.269 327.206,227.466 327.574,225.538 327.975 C 220.793 328.963,216.644 329.630,214.165 329.803 C 211.278 330.005,210.720 330.560,210.717 333.236 C 210.715 335.731,207.640 349.367,205.928 354.479 C 199.893 372.498,194.365 366.576,189.162 336.519 C 188.057 330.133,187.709 329.494,185.335 329.494 C 183.355 329.494,180.386 329.158,178.067 328.671 C 174.601 327.944,174.769 327.938,173.885 328.822 C 173.312 329.395,172.989 329.976,172.672 331.001 C 171.450 334.959,163.830 348.177,160.031 352.929 C 151.367 363.768,147.999 356.098,150.445 331.097 C 150.941 326.020,151.121 322.743,150.950 321.857 C 150.821 321.188,146.752 319.129,140.511 316.575 C 138.216 315.636,137.219 316.018,134.893 318.725 C 125.724 329.395,114.441 338.698,110.666 338.699 C 105.758 338.700,107.413 330.178,116.691 307.675 C 118.071 304.328,118.120 301.792,116.815 301.304 C 116.381 301.142,111.977 297.604,109.803 295.671 C 107.621 293.730,107.679 293.722,103.127 296.556 C 88.537 305.640,77.723 310.120,74.546 308.397 C 71.051 306.501,75.518 297.525,87.521 282.323 C 91.328 277.503,92.159 275.963,91.299 275.333 C 90.964 275.088,86.649 268.646,85.314 266.399 C 83.990 264.171,82.732 264.033,78.787 265.684 C 71.608 268.688,53.213 271.307,48.824 269.950 C 42.271 267.923,47.933 261.177,66.763 248.573 C 72.966 244.421,73.801 243.402,72.694 241.334 C 72.376 240.740,69.747 231.797,69.582 230.746 C 69.219 228.444,69.145 228.426,58.688 228.152 C 24.213 227.247,24.439 220.867,59.375 208.689 C 64.415 206.932,65.292 206.269,65.007 204.431 C 64.671 202.267,64.452 195.552,64.670 194.132 C 65.020 191.856,63.581 189.721,61.476 189.393 C 57.421 188.762,45.260 184.534,39.559 181.774 C 23.974 174.228,31.134 169.563,60.601 168.062 C 65.648 167.805,67.702 167.050,67.702 165.453 C 67.702 164.800,69.646 158.479,70.115 157.608 C 71.341 155.329,70.799 154.164,67.802 152.631 C 61.211 149.260,50.722 141.655,46.788 137.394 C 38.075 127.958,46.695 126.126,73.056 131.811 C 77.904 132.857,80.056 132.774,80.287 131.532 C 80.325 131.331,81.532 129.348,82.971 127.125 C 87.768 119.713,87.769 119.579,83.143 114.511 C 75.143 105.747,69.424 97.447,68.365 93.064 C 66.722 86.264,77.177 88.517,96.545 99.137 C 100.553 101.335,103.297 101.965,103.370 100.706 C 103.378 100.566,105.317 98.709,107.678 96.579 C 113.699 91.150,113.985 90.636,112.491 87.932 C 105.700 75.640,101.417 61.421,103.498 58.075 C 105.777 54.412,112.915 58.639,126.557 71.729 C 132.113 77.059,133.401 77.834,134.767 76.663 C 135.138 76.345,144.348 71.882,145.681 71.375 C 147.447 70.703,147.464 70.586,146.726 63.885 C 142.698 27.283,148.387 25.889,167.035 58.908 C 169.493 63.262,169.302 63.128,172.179 62.501 C 175.797 61.711,183.411 60.680,187.782 60.387 C 190.679 60.194,190.886 60.032,190.886 57.971 C 190.886 56.760,192.322 49.743,193.594 44.737 C 196.786 32.174,200.224 25.882,203.214 27.132 " stroke="none" fill="#1c84b4" fill-rule="evenodd"></path><path id="path4" d="M198.984 75.163 C 192.863 79.311,190.441 102.132,194.600 116.484 C 197.901 127.874,204.102 127.874,207.403 116.484 C 212.181 99.997,208.294 74.512,201.002 74.512 C 200.140 74.512,199.768 74.632,198.984 75.163 " stroke="none" fill="#fcc404" fill-rule="evenodd"></path><path id="path5" d="" stroke="none" fill="#706db2" fill-rule="evenodd"></path><path id="path6" d="M196.294 170.356 C 195.808 170.851,195.455 171.257,195.510 171.257 C 195.565 171.257,196.008 170.851,196.495 170.356 C 196.981 169.860,197.334 169.454,197.279 169.454 C 197.224 169.454,196.781 169.860,196.294 170.356 M198.012 170.074 C 198.334 170.470,198.638 170.760,198.688 170.719 C 198.737 170.677,198.473 170.353,198.101 169.999 L 197.425 169.354 198.012 170.074 M207.903 170.305 C 208.734 171.190,208.913 171.349,208.913 171.198 C 208.913 171.166,208.485 170.738,207.962 170.247 L 207.011 169.354 207.903 170.305 " stroke="none" fill="#49449c" fill-rule="evenodd"></path><path id="path7" d="M195.689 171.207 L 193.991 172.959 195.703 171.301 L 197.416 169.643 197.878 170.135 C 198.158 170.433,198.280 170.730,198.189 170.892 C 198.067 171.106,198.090 171.109,198.311 170.903 C 198.539 170.692,198.485 170.551,197.986 170.052 L 197.388 169.454 195.689 171.207 M206.408 170.056 C 205.932 170.554,205.878 170.702,206.100 170.908 C 206.315 171.107,206.338 171.104,206.218 170.892 C 206.126 170.730,206.249 170.433,206.529 170.135 L 206.991 169.643 208.703 171.301 L 210.416 172.959 208.717 171.207 C 207.784 170.243,207.012 169.454,207.002 169.454 C 206.993 169.454,206.726 169.725,206.408 170.056 M197.576 171.708 C 196.699 172.720,196.438 173.060,196.540 173.060 C 196.599 173.060,196.979 172.654,197.385 172.158 C 198.138 171.240,198.287 170.888,197.576 171.708 M206.988 172.117 C 207.412 172.636,207.802 173.060,207.853 173.060 C 207.989 173.060,206.721 171.487,206.448 171.319 C 206.320 171.240,206.563 171.599,206.988 172.117 M193.279 173.811 L 192.589 174.562 193.340 173.872 C 194.039 173.229,194.183 173.060,194.030 173.060 C 193.997 173.060,193.659 173.398,193.279 173.811 M210.916 173.761 C 211.290 174.146,211.641 174.462,211.696 174.462 C 211.751 174.462,211.490 174.146,211.117 173.761 C 210.743 173.375,210.392 173.060,210.337 173.060 C 210.282 173.060,210.543 173.375,210.916 173.761 M195.673 174.111 C 194.663 175.424,194.636 175.463,194.744 175.463 C 194.799 175.463,195.218 174.967,195.676 174.362 C 196.133 173.756,196.467 173.260,196.418 173.260 C 196.369 173.260,196.033 173.643,195.673 174.111 M208.698 174.311 C 209.173 174.945,209.602 175.463,209.651 175.463 C 209.788 175.463,208.470 173.673,208.133 173.401 C 207.968 173.268,208.223 173.678,208.698 174.311 M212.593 175.722 C 213.130 176.351,213.611 176.865,213.663 176.865 C 213.798 176.865,212.130 174.893,211.850 174.721 C 211.722 174.642,212.057 175.093,212.593 175.722 M194.091 176.264 C 193.856 176.595,193.708 176.865,193.763 176.865 C 193.818 176.865,194.056 176.595,194.291 176.264 C 194.527 175.934,194.674 175.663,194.619 175.663 C 194.564 175.663,194.326 175.934,194.091 176.264 M210.115 176.264 C 210.351 176.595,210.588 176.865,210.643 176.865 C 210.698 176.865,210.551 176.595,210.315 176.264 C 210.080 175.934,209.843 175.663,209.787 175.663 C 209.732 175.663,209.880 175.934,210.115 176.264 M188.462 179.720 C 187.453 181.032,187.426 181.072,187.533 181.072 C 187.588 181.072,188.008 180.576,188.465 179.970 C 188.923 179.364,189.256 178.868,189.207 178.868 C 189.158 178.868,188.823 179.251,188.462 179.720 M216.237 180.320 C 216.863 181.174,217.414 181.873,217.463 181.873 C 217.588 181.873,216.389 180.224,215.688 179.432 C 215.364 179.067,215.611 179.467,216.237 180.320 M186.279 182.674 C 186.044 183.005,185.897 183.275,185.952 183.275 C 186.007 183.275,186.244 183.005,186.480 182.674 C 186.715 182.344,186.863 182.073,186.807 182.073 C 186.752 182.073,186.515 182.344,186.279 182.674 M217.927 182.674 C 218.162 183.005,218.400 183.275,218.455 183.275 C 218.510 183.275,218.363 183.005,218.127 182.674 C 217.892 182.344,217.654 182.073,217.599 182.073 C 217.544 182.073,217.692 182.344,217.927 182.674 M188.583 185.278 C 188.412 185.608,188.317 185.879,188.372 185.879 C 188.427 185.879,188.612 185.608,188.783 185.278 C 188.954 184.947,189.049 184.677,188.994 184.677 C 188.939 184.677,188.754 184.947,188.583 185.278 M215.623 185.278 C 215.794 185.608,215.979 185.879,216.034 185.879 C 216.089 185.879,215.995 185.608,215.824 185.278 C 215.653 184.947,215.468 184.677,215.413 184.677 C 215.358 184.677,215.453 184.947,215.623 185.278 M186.215 189.994 C 185.745 190.981,185.811 191.149,186.303 190.216 C 186.526 189.793,186.674 189.411,186.630 189.368 C 186.587 189.324,186.400 189.606,186.215 189.994 M217.743 189.384 C 217.743 189.494,217.916 189.900,218.127 190.285 C 218.338 190.671,218.511 190.896,218.511 190.786 C 218.511 190.676,218.338 190.270,218.127 189.885 C 217.916 189.499,217.743 189.274,217.743 189.384 M177.666 196.695 C 177.442 197.136,177.303 197.496,177.358 197.496 C 177.413 197.496,177.642 197.136,177.867 196.695 C 178.092 196.254,178.230 195.894,178.175 195.894 C 178.120 195.894,177.891 196.254,177.666 196.695 M226.440 196.495 C 226.611 196.825,226.795 197.096,226.851 197.096 C 226.906 197.096,226.811 196.825,226.640 196.495 C 226.469 196.164,226.284 195.894,226.229 195.894 C 226.174 195.894,226.269 196.164,226.440 196.495 M174.397 203.214 C 173.927 204.201,173.993 204.369,174.485 203.436 C 174.708 203.013,174.856 202.631,174.813 202.588 C 174.769 202.544,174.582 202.826,174.397 203.214 M229.561 202.604 C 229.561 202.714,229.734 203.120,229.945 203.505 C 230.156 203.891,230.329 204.116,230.329 204.006 C 230.329 203.896,230.156 203.490,229.945 203.105 C 229.734 202.719,229.561 202.494,229.561 202.604 M172.505 245.168 C 172.505 245.553,172.546 245.711,172.597 245.518 C 172.647 245.325,172.647 245.010,172.597 244.817 C 172.546 244.624,172.505 244.782,172.505 245.168 M231.794 245.168 C 231.794 245.553,231.835 245.711,231.886 245.518 C 231.936 245.325,231.936 245.010,231.886 244.817 C 231.835 244.624,231.794 244.782,231.794 245.168 M172.313 247.772 C 172.313 248.267,172.352 248.470,172.400 248.222 C 172.447 247.974,172.447 247.569,172.400 247.321 C 172.352 247.073,172.313 247.276,172.313 247.772 M232.002 247.772 C 232.002 248.267,232.042 248.470,232.089 248.222 C 232.137 247.974,232.137 247.569,232.089 247.321 C 232.042 247.073,232.002 247.276,232.002 247.772 M172.120 251.277 C 172.121 251.938,172.159 252.184,172.203 251.824 C 172.248 251.464,172.247 250.923,172.201 250.622 C 172.156 250.321,172.119 250.616,172.120 251.277 M232.210 251.277 C 232.211 251.938,232.249 252.184,232.293 251.824 C 232.338 251.464,232.337 250.923,232.291 250.622 C 232.246 250.321,232.209 250.616,232.210 251.277 " stroke="none" fill="#8c8cc4" fill-rule="evenodd"></path><path id="path8" d="" stroke="none" fill="#5450a4" fill-rule="evenodd"></path></g></svg>